<svg xmlns="http://www.w3.org/2000/svg" width="1024" height="1024" viewBox="0 0 1024 1024" version="1.1">
	<path d="M 337.139 313.046 C 302.788 320.482, 268.177 342.838, 239.678 375.999 C 227.273 390.433, 219.577 401.145, 208.878 418.867 L 200.044 433.500 220.772 433.783 C 236.813 434.003, 241.678 433.777, 242.285 432.783 C 242.717 432.078, 246.037 426.100, 249.662 419.500 C 262.746 395.678, 273.473 380.647, 288.457 365.143 C 314.929 337.751, 340.458 324.731, 370.500 323.298 C 383.448 322.681, 394.954 324.929, 405.123 330.062 L 411.278 333.169 409.067 330.358 C 404.146 324.102, 392.828 317.609, 380.266 313.835 C 370.009 310.754, 349.465 310.378, 337.139 313.046 M 696.250 433.942 C 691.163 439.380, 686.999 443.980, 686.998 444.165 C 686.997 444.349, 693.184 444.275, 700.748 444 L 714.500 443.500 727 434.134 C 733.875 428.983, 739.688 424.595, 739.917 424.384 C 740.146 424.173, 732.496 424.012, 722.917 424.027 L 705.500 424.054 696.250 433.942 M 443.406 453.020 C 425.603 454.898, 414.456 465.247, 410.058 483.980 C 406.517 499.063, 399.914 535.109, 399.300 542.710 C 398.272 555.432, 402.110 562.877, 412 567.341 C 416.021 569.156, 419.053 569.416, 440.500 569.782 C 471.961 570.319, 487.176 569.127, 494.478 565.554 C 501.328 562.203, 508.275 554.554, 510.942 547.425 C 512.990 541.952, 517.735 519.425, 522.546 492.337 C 524.825 479.503, 524.967 477.321, 523.882 471.808 C 522.438 464.466, 517.908 458.748, 511.164 455.755 C 503.848 452.508, 463.645 450.885, 443.406 453.020 M 90.588 461.757 C 73.947 491.380, 32.427 563.950, 30.804 566.250 L 28.864 569 46.304 569 L 63.744 569 69.104 559.500 L 74.465 550 99.653 550 L 124.841 550 125.396 552.750 C 125.701 554.263, 126.455 558.517, 127.070 562.205 L 128.190 568.910 145.096 569.205 C 154.395 569.367, 162.002 569.440, 162.001 569.368 C 162.001 569.295, 158.889 552.645, 155.087 532.368 C 148.446 496.947, 142.881 466.212, 141.486 457.250 L 140.824 453 118.162 453.007 L 95.500 453.013 90.588 461.757 M 186.117 458.250 C 185.553 461.137, 182.854 475.200, 180.119 489.500 C 177.384 503.800, 174.189 520.450, 173.019 526.500 C 168.867 547.970, 169.203 554.523, 174.801 561.176 C 176.247 562.894, 179.921 565.454, 182.965 566.863 C 188.373 569.367, 189.095 569.434, 214.458 569.802 C 248.841 570.301, 255.220 569.002, 265.999 559.311 C 273.499 552.568, 276.363 545.656, 280.010 525.500 C 282.699 510.641, 292.387 459.575, 293.433 454.750 C 293.782 453.144, 292.569 453, 278.650 453 L 263.487 453 259.106 475.750 C 256.696 488.262, 253.225 506.362, 251.392 515.972 C 246.555 541.334, 245.825 541.996, 222.705 541.998 C 208.328 542, 207.840 541.930, 205.455 539.545 C 204.105 538.195, 203 536.229, 203 535.175 C 203 530.524, 217.242 456.035, 218.530 453.951 C 218.893 453.365, 212.989 453, 203.130 453 L 187.142 453 186.117 458.250 M 302.502 455.250 C 301.394 459.898, 298 479.457, 298 481.193 C 298 482.869, 299.307 483, 316 483 C 326.712 483, 334 483.385, 334 483.951 C 334 484.474, 333.562 487.061, 333.027 489.701 C 332.492 492.340, 329.990 505.300, 327.467 518.500 C 324.944 531.700, 321.782 548.092, 320.440 554.927 C 319.098 561.762, 318 567.724, 318 568.177 C 318 568.630, 324.916 569, 333.368 569 L 348.737 569 349.279 565.250 C 350.010 560.201, 362.724 493.739, 364.104 487.750 L 365.199 483 384.100 483 C 394.495 483, 403.002 482.887, 403.004 482.750 C 403.017 481.921, 408.159 456.186, 408.599 454.750 C 409.105 453.099, 406.146 453, 356.086 453 L 303.038 453 302.502 455.250 M 545.620 455.750 C 545.324 457.262, 543.242 468.175, 540.994 480 C 537.281 499.528, 531.036 531.662, 525.954 557.389 C 524.879 562.828, 524 567.666, 524 568.139 C 524 568.613, 530.975 569, 539.500 569 C 554.394 569, 555 568.921, 555 566.976 C 555 565.863, 556.630 556.645, 558.621 546.491 L 562.243 528.029 591.864 527.765 L 621.484 527.500 623.656 516.500 C 624.850 510.450, 625.866 504.262, 625.914 502.750 L 626 500 596.981 500 L 567.962 500 568.408 497.750 C 568.653 496.512, 569.398 492.688, 570.064 489.250 L 571.273 483 604.978 483 L 638.682 483 639.804 477.750 C 640.421 474.863, 641.398 469.575, 641.975 466 C 642.553 462.425, 643.265 458.038, 643.558 456.250 L 644.091 453 595.125 453 L 546.159 453 545.620 455.750 M 673.883 465.750 C 668.414 475.346, 616.988 563.867, 614.336 568.250 C 614.086 568.663, 621.671 568.999, 631.191 568.999 L 648.500 568.998 653.796 559.499 L 659.091 550 683.932 550 L 708.773 550 709.468 554.750 C 709.850 557.362, 710.614 561.638, 711.165 564.250 L 712.166 569 729.083 569 C 738.387 569, 746 568.747, 746 568.438 C 746 568.130, 742.911 552.267, 739.135 533.188 C 735.360 514.110, 730.297 488.266, 727.885 475.759 L 723.500 453.017 702.325 453.009 L 681.150 453 673.883 465.750 M 791.929 454.367 C 778.455 458, 769.629 468.087, 765.564 484.500 C 762.959 495.019, 755.699 532.960, 754.443 542.613 C 753.070 553.175, 758.192 562.781, 767.500 567.100 C 771.167 568.802, 774.591 568.958, 808.632 568.978 L 845.764 569 848.390 555.416 C 849.833 547.945, 850.773 541.442, 850.478 540.965 C 850.183 540.488, 836.618 540.089, 820.332 540.078 C 787.439 540.056, 787 539.970, 787 533.551 C 787 528.006, 794.985 489.953, 796.696 487.341 C 797.606 485.953, 799.425 484.409, 800.740 483.909 C 802.055 483.409, 816.569 483, 832.994 483 L 862.858 483 863.940 477.750 C 865.496 470.200, 867.997 455.717, 867.999 454.250 C 868.001 452.479, 798.537 452.586, 791.929 454.367 M 882 453.907 C 882 454.406, 877.050 480.262, 871 511.365 C 864.950 542.467, 860 568.159, 860 568.458 C 860 568.756, 866.909 569, 875.352 569 L 890.705 569 895.324 545.250 C 897.865 532.188, 902.882 506.415, 906.472 487.978 C 910.063 469.542, 913 454.129, 913 453.728 C 913 453.328, 906.025 453, 897.500 453 C 888.894 453, 882 453.403, 882 453.907 M 923.731 478.750 C 921.108 492.913, 916.278 518.675, 912.998 536 C 909.718 553.325, 907.026 567.837, 907.017 568.250 C 907.008 568.663, 926.791 569, 950.981 569 L 994.962 569 995.445 566.750 C 996.292 562.800, 998.861 548.650, 999.530 544.250 L 1000.176 540 971.508 540 L 942.841 540 943.442 537.250 C 944.016 534.617, 949.797 504.768, 956.053 472.123 C 957.674 463.666, 959 455.903, 959 454.873 C 959 453.124, 957.989 453, 943.750 453 L 928.500 453 923.731 478.750 M 107.878 490.028 C 104.920 495.154, 99.245 504.782, 95.266 511.424 L 88.032 523.500 104.190 523.776 C 113.077 523.927, 120.732 523.668, 121.200 523.200 C 121.669 522.731, 121.391 519.460, 120.582 515.924 C 119.774 512.391, 118.180 503.710, 117.041 496.634 C 115.902 489.557, 114.584 483.079, 114.113 482.237 C 113.465 481.080, 111.947 482.976, 107.878 490.028 M 446.500 482.386 C 444.849 483.105, 442.894 484.423, 442.153 485.315 C 440.701 487.066, 436.244 507.892, 433.477 525.861 C 431.027 541.772, 430.861 541.585, 448.204 542.466 C 462.496 543.192, 477.072 542.015, 479.582 539.932 C 480.434 539.225, 481.814 537.327, 482.647 535.716 C 484.500 532.133, 491.986 494.136, 491.994 488.276 C 492.003 481.608, 489.943 480.992, 467.800 481.039 C 455.003 481.067, 448.598 481.472, 446.500 482.386 M 690.382 492.750 C 687.242 498.113, 682.776 505.650, 680.458 509.500 C 676.036 516.844, 673 522.523, 673 523.450 C 673 524.298, 703.823 524.101, 704.323 523.250 C 704.960 522.167, 697.636 483.004, 696.796 483.002 C 696.409 483.001, 693.523 487.387, 690.382 492.750 M 172.538 591.174 C 176.198 607.837, 185.436 625.595, 195.915 636.112 C 211.464 651.717, 226.372 655.155, 249.530 648.475 C 265.283 643.932, 288.722 631.279, 301.500 620.423 L 304.500 617.874 300.500 619.573 C 283.503 626.791, 275.012 628.915, 262.960 628.965 C 248.162 629.026, 238.335 625.240, 228.962 615.867 C 223.923 610.828, 216.574 597.578, 215.427 591.464 L 214.779 588.009 193.319 588.043 L 171.858 588.078 172.538 591.174 M 433.612 596.876 C 432.075 598.575, 432.065 598.811, 433.509 599.365 C 435.176 600.005, 440 597.419, 440 595.885 C 440 594.254, 435.329 594.979, 433.612 596.876 M 596.153 596.867 C 592.890 599.697, 593.539 600.075, 598.500 598.236 C 600.975 597.319, 603 596.216, 603 595.784 C 603 594.273, 598.285 595.018, 596.153 596.867 M 888.861 596.967 C 887.562 598.048, 886.898 598.948, 887.384 598.967 C 889.346 599.041, 896 596.627, 896 595.842 C 896 594.249, 891.218 595.003, 888.861 596.967 M 433.222 603.309 C 432.290 604.509, 423.529 623.285, 420.652 630.250 L 419.102 634 421.631 634 C 423.654 634, 424.476 633.198, 425.732 630 C 427.291 626.030, 427.344 626, 432.633 626 C 437.634 626, 437.999 626.169, 438.564 628.750 C 439.634 633.631, 439.900 634, 442.351 634 L 444.765 634 441.596 618.851 C 438.872 605.826, 438.127 603.591, 436.287 602.910 C 434.940 602.412, 433.804 602.560, 433.222 603.309 M 525.450 603.407 C 520.891 605.392, 517.297 610.314, 515.924 616.450 C 512.085 633.604, 529.884 641.751, 540.407 627.656 C 541.862 625.708, 542.550 622.957, 542.832 617.965 C 543.279 610.048, 542.038 607.213, 536.696 603.956 C 532.992 601.698, 529.738 601.539, 525.450 603.407 M 618.898 604.258 C 613.605 607.775, 610.796 614.180, 611.232 621.733 C 611.535 626.968, 612.053 628.446, 614.471 630.970 C 618.226 634.889, 622.816 635.724, 628.555 633.532 C 633.887 631.496, 636.139 628.306, 633.571 626.428 C 632.173 625.406, 631.451 625.604, 629.298 627.599 C 627.630 629.146, 625.509 630, 623.339 630 C 613.967 630, 613.858 610.940, 623.212 607.606 C 626.626 606.390, 630.731 607.576, 631.501 610.002 C 632.186 612.160, 633.653 612.505, 635.954 611.050 C 637.215 610.252, 637.219 609.778, 635.989 607.480 C 632.998 601.891, 624.788 600.344, 618.898 604.258 M 741 602.722 C 732.262 606.005, 727.180 619.647, 731.549 628.094 C 735.839 636.391, 747.944 637.199, 754.902 629.653 L 757.304 627.048 754.902 626.154 C 753.005 625.448, 751.905 625.758, 749.673 627.630 C 743.172 633.081, 735.996 629.136, 736.004 620.115 C 736.012 609.514, 744.817 603.610, 751.825 609.506 C 756.174 613.165, 759.432 611.543, 756.970 606.945 C 754.878 603.035, 746.242 600.752, 741 602.722 M 773.021 603.116 C 769.530 604.509, 767.068 606.939, 765.034 611 C 757.959 625.127, 766.608 637.875, 780.695 634.082 C 788.371 632.015, 793.793 622.727, 792.746 613.439 C 791.744 604.552, 782.088 599.498, 773.021 603.116 M 879.121 618 L 871.337 634 874.148 634 C 876.421 634, 877.350 633.234, 879 630 C 880.999 626.082, 881.151 626, 886.421 626 L 891.801 626 892.683 629.750 C 893.404 632.817, 894.059 633.558, 896.282 633.816 C 899.637 634.207, 899.640 634.079, 896.524 621.498 C 895.162 615.999, 893.767 609.628, 893.424 607.340 C 892.835 603.416, 891.397 602.077, 887.703 602.014 C 887.264 602.006, 883.403 609.200, 879.121 618 M 397.568 606.250 C 393.341 632.535, 393.276 634, 396.338 634 C 398.412 634, 398.779 633.350, 399.588 628.257 C 400.876 620.142, 402.987 620.051, 406.968 627.936 C 409.684 633.318, 410.365 634, 413.016 634 L 416.002 634 412.751 627.890 C 409.611 621.990, 409.566 621.742, 411.436 620.640 C 418.405 616.534, 420.316 608.967, 415.365 605.073 C 413.245 603.405, 411.302 603, 405.410 603 L 398.091 603 397.568 606.250 M 451.614 616.250 C 450.639 623.538, 449.603 630.513, 449.312 631.750 C 448.869 633.636, 449.198 634, 451.346 634 C 453.534 634, 453.998 633.451, 454.512 630.250 C 455.897 621.636, 455.620 622, 460.797 622 C 466.450 622, 469.670 620.035, 471.606 615.401 C 473.598 610.633, 473.370 609.216, 470.077 605.923 C 467.412 603.259, 466.545 603, 460.270 603 L 453.387 603 451.614 616.250 M 477.104 616.750 C 475.892 624.313, 474.667 631.288, 474.383 632.250 C 473.986 633.591, 474.455 634, 476.387 634 C 478.457 634, 479.004 633.417, 479.440 630.750 C 479.731 628.962, 480.877 622.341, 481.985 616.035 C 484.451 602.003, 484.477 603, 481.654 603 C 479.413 603, 479.209 603.617, 477.104 616.750 M 490.581 606.250 C 490.300 608.038, 489.238 615.013, 488.221 621.750 L 486.370 634 493.537 634 C 501.985 634, 506.067 631.856, 509.775 625.470 C 511.673 622.202, 512.020 620.372, 511.735 615.118 C 511.425 609.404, 511.052 608.436, 508.178 605.868 C 505.298 603.295, 504.256 603, 498.030 603 L 491.091 603 490.581 606.250 M 567.995 603.250 C 567.993 603.388, 567.095 609.575, 566 617 C 563.461 634.217, 563.455 634, 566.439 634 C 568.594 634, 568.950 633.447, 569.502 629.250 C 569.846 626.638, 570.219 623.825, 570.331 623 C 570.480 621.908, 571.889 621.478, 575.518 621.418 C 579.687 621.350, 580.548 621.013, 580.795 619.352 C 581.056 617.601, 580.528 617.376, 576.295 617.434 C 571.573 617.499, 571.503 617.454, 571.714 614.500 C 572.232 607.224, 572.461 607, 579.402 607 C 584.926 607, 585.836 606.736, 586.290 605 C 586.785 603.105, 586.320 603, 577.406 603 C 572.233 603, 567.998 603.112, 567.995 603.250 M 593.700 604.250 C 593.418 604.938, 590.245 611.913, 586.650 619.750 L 580.112 634 582.979 634 C 585.368 634, 586.037 633.417, 587 630.500 C 588.262 626.676, 590.454 625.636, 596.112 626.176 C 599.102 626.462, 599.609 626.940, 600.426 630.250 C 601.230 633.505, 601.734 634, 604.244 634 C 606.542 634, 607.021 633.641, 606.580 632.250 C 605.834 629.894, 600.027 604.697, 600.012 603.750 C 599.992 602.471, 594.244 602.927, 593.700 604.250 M 642.190 616.905 C 640.991 624.553, 639.735 631.528, 639.398 632.405 C 638.925 633.637, 639.441 634, 641.664 634 L 644.543 634 646.781 619.750 C 649.512 602.359, 649.516 603, 646.685 603 C 644.481 603, 644.266 603.664, 642.190 616.905 M 655.177 617.750 C 653.971 625.862, 652.988 632.837, 652.992 633.250 C 652.996 633.663, 657.050 634, 662 634 C 670.333 634, 671 633.852, 671 632 C 671 630.229, 670.333 630, 665.167 630 C 661.958 630, 659.105 629.772, 658.826 629.493 C 658.547 629.214, 659.301 623.139, 660.501 615.993 L 662.684 603 660.026 603 C 657.369 603, 657.369 603, 655.177 617.750 M 692.702 615.750 C 691.731 622.763, 690.674 629.737, 690.352 631.250 L 689.767 634 699.767 634 C 708.926 634, 709.811 633.832, 710.290 632 C 710.779 630.131, 710.320 630, 703.290 630 C 695.976 630, 695.784 629.937, 696.370 627.750 C 696.701 626.513, 696.979 624.487, 696.986 623.250 C 696.999 621.149, 697.430 621, 703.500 621 C 709.767 621, 710 620.910, 710 618.500 C 710 616.106, 709.740 616, 703.893 616 C 698.735 616, 697.880 615.754, 698.393 614.418 C 698.727 613.548, 699 611.493, 699 609.851 L 699 606.866 706.250 607.105 C 713.015 607.329, 713.521 607.200, 713.820 605.173 C 714.129 603.068, 713.831 603, 704.302 603 L 694.465 603 692.702 615.750 M 801.617 606.750 C 799.379 621.767, 797.791 631.686, 797.456 632.750 C 797.206 633.547, 798.081 634, 799.870 634 C 802.631 634, 802.699 633.857, 803.964 625.356 C 804.671 620.602, 805.587 615.539, 805.999 614.106 L 806.748 611.500 807.932 614.467 C 808.583 616.099, 811.227 621.159, 813.808 625.711 C 817.774 632.707, 818.897 633.988, 821.070 633.993 C 823.592 634, 823.680 633.753, 825.820 620.712 C 828.615 603.675, 828.609 603, 825.661 603 C 823.483 603, 823.237 603.600, 822.073 611.750 C 821.386 616.563, 820.745 621.175, 820.648 622 C 820.256 625.348, 818.236 622.996, 813.131 613.250 C 808.275 603.977, 807.496 603, 804.969 603 C 802.507 603, 802.109 603.445, 801.617 606.750 M 835.151 616.750 C 832.420 634.111, 832.418 634, 835.466 634 C 837.673 634, 838.001 633.470, 838.603 628.934 C 839.480 622.326, 841.136 620.730, 846.659 621.169 C 850.600 621.483, 851 621.306, 851 619.257 C 851 617.215, 850.523 617, 846 617 C 841.209 617, 841.001 616.885, 841.014 614.250 C 841.047 607.600, 841.676 607, 848.617 607 C 854.333 607, 855 606.791, 855 605 C 855 603.151, 854.333 603, 846.157 603 L 837.313 603 835.151 616.750 M 863.574 605.250 C 863.319 606.487, 862.370 612.225, 861.466 618 C 860.561 623.775, 859.580 629.737, 859.286 631.250 C 858.800 633.745, 859.021 634, 861.676 634 L 864.601 634 866.363 621.750 C 867.332 615.013, 868.373 608.038, 868.676 606.250 C 869.180 603.277, 869.006 603, 866.633 603 C 864.746 603, 863.911 603.614, 863.574 605.250 M 904.069 604.750 C 904.107 605.712, 905.795 612.575, 907.819 620 L 911.500 633.500 914.500 633.500 C 917.362 633.500, 917.858 632.799, 925.281 618.250 L 933.063 603 930.238 603 C 927.651 603, 926.966 603.888, 922.141 613.500 C 919.241 619.275, 916.288 624, 915.576 624 C 914.749 624, 913.444 620.217, 911.953 613.500 C 909.669 603.209, 909.566 603, 906.811 603 C 904.774 603, 904.019 603.482, 904.069 604.750 M 938.592 605.250 C 938.347 606.487, 937.421 612.450, 936.536 618.500 C 935.650 624.550, 934.704 630.528, 934.435 631.785 C 933.946 634.063, 933.978 634.070, 944.210 633.785 C 953.059 633.539, 954.523 633.258, 954.812 631.750 C 955.105 630.217, 954.271 630, 948.073 630 L 941 630 941.015 626.750 C 941.038 621.892, 941.985 621.142, 948.524 620.807 C 953.850 620.533, 954.535 620.255, 954.820 618.250 C 955.123 616.113, 954.810 616, 948.595 616 L 942.050 616 942.612 612.750 C 943.617 606.930, 943.515 607, 950.969 607 C 957.333 607, 958 606.810, 958 605 C 958 603.141, 957.333 603, 948.519 603 C 939.486 603, 939.017 603.106, 938.592 605.250 M 966.567 606.250 C 966.278 608.038, 965.211 615.013, 964.194 621.750 L 962.346 634 971.673 634 C 980.333 634, 981 633.857, 981 632 C 981 630.203, 980.333 630, 974.421 630 L 967.841 630 968.437 627.250 C 969.442 622.607, 971.964 606.604, 971.983 604.750 C 971.994 603.554, 971.223 603, 969.545 603 C 967.550 603, 966.993 603.608, 966.567 606.250 M 401.710 611.750 C 401.024 617.668, 401.872 618.634, 406.698 617.431 C 409.206 616.806, 410.938 615.576, 411.967 613.689 C 413.418 611.030, 413.373 610.775, 411.139 608.939 C 409.841 607.873, 407.312 607, 405.519 607 C 402.375 607, 402.241 607.168, 401.710 611.750 M 457.585 609.250 C 455.795 618.138, 455.764 618, 459.525 618 C 465.526 618, 469.119 612.262, 465.429 608.571 C 464.564 607.707, 462.548 607, 460.948 607 C 458.731 607, 457.930 607.536, 457.585 609.250 M 495.549 608.250 C 495.335 608.938, 494.634 613.325, 493.991 618 C 493.348 622.675, 492.585 627.354, 492.297 628.397 C 491.823 630.109, 492.197 630.237, 496.136 629.709 C 503.825 628.678, 508.994 619.344, 506.091 611.732 C 504.596 607.809, 496.515 605.141, 495.549 608.250 M 526.303 608.197 C 522.828 609.876, 520.707 615.454, 521.215 621.577 C 521.756 628.102, 523.222 630, 527.721 630 C 536.056 630, 541.581 615.491, 535.545 609.455 C 532.949 606.858, 529.925 606.447, 526.303 608.197 M 772.490 610.442 C 768.697 614.463, 767.414 619.694, 769.023 624.570 C 771.646 632.518, 782.104 631.781, 785.606 623.401 C 787.844 618.045, 787.408 612.317, 784.545 609.455 C 780.893 605.803, 776.528 606.160, 772.490 610.442 M 432.204 615.516 C 429.283 621.528, 429.384 622, 433.588 622 L 437.176 622 436.475 617.750 C 435.349 610.918, 434.623 610.538, 432.204 615.516 M 593.726 615.910 C 591.507 622.156, 591.473 622, 595.061 622 L 598.123 622 597.444 617.250 C 596.495 610.599, 595.712 610.317, 593.726 615.910 M 886.486 614.500 C 885.549 616.700, 884.366 619.288, 883.856 620.250 C 883.047 621.778, 883.433 622, 886.902 622 L 890.874 622 890.288 618.250 C 889.965 616.188, 889.361 613.600, 888.946 612.500 C 888.288 610.758, 887.970 611.016, 886.486 614.500 M 543.667 630.667 C 543.300 631.033, 543 632.297, 543 633.476 C 543 634.654, 542.339 636.491, 541.532 637.559 C 539.555 640.173, 539.641 641, 541.890 641 C 543.149 641, 544.484 639.502, 545.890 636.511 C 547.050 634.042, 548 631.567, 548 631.011 C 548 629.885, 544.709 629.624, 543.667 630.667" stroke="none" fill="#000000" fill-rule="evenodd"/>
</svg>